<?xml version="1.0" encoding="utf-8"?>
<!-- Generator: Adobe Illustrator 28.2.0, SVG Export Plug-In . SVG Version: 6.00 Build 0)  -->
<svg version="1.1" id="Layer_1" xmlns="http://www.w3.org/2000/svg" xmlns:xlink="http://www.w3.org/1999/xlink" x="0px" y="0px"
	 viewBox="0 0 181.2 179.6" style="enable-background:new 0 0 181.2 179.6;" xml:space="preserve">
<style type="text/css">
	.st0{clip-path:url(#SVGID_00000006665823384752624020000017368565449331223472_);}
	.st1{fill-rule:evenodd;clip-rule:evenodd;fill:#273A1B;}
	.st2{fill-rule:evenodd;clip-rule:evenodd;fill:#FDBC0D;}
</style>
<g id="Grupo_34" transform="translate(0 0)">
	<g>
		<defs>
			<rect id="SVGID_1_" y="0" width="181.2" height="179.6"/>
		</defs>
		<clipPath id="SVGID_00000083060473259949593120000013362953904516119701_">
			<use xlink:href="#SVGID_1_"  style="overflow:visible;"/>
		</clipPath>
		
			<g id="Grupo_33" transform="translate(0 0)" style="clip-path:url(#SVGID_00000083060473259949593120000013362953904516119701_);">
			<path id="Caminho_175" class="st1" d="M147.7,91.8c-1.4,0-2.8,0.2-4.4,0.2h-0.4c-3.9-4.5-9-7.9-14.7-9.6
				c-0.2,26.1-21.5,47.1-47.6,47c-21.1-0.1-39.6-14-45.6-34.2c-16.7,8.1-23.6,28.1-15.5,44.8c5.6,11.6,17.3,18.9,30.2,18.9h0.6
				c7.4,12.3,24.3,20.7,44.2,20.7c20.3,0,37.6-9,44.8-21.7c2.7,0.8,5.6,1.1,8.4,1c18.5,0,33.6-15,33.6-33.6S166.2,91.8,147.7,91.8"
				/>
			<path id="Caminho_176" class="st2" d="M70.3,34.4l-0.2-12.5l4,11.8L70.3,34.4z M62.3,36.8L52.6,5l13.1,30.5L62.3,36.8z
				 M54.6,40.8l-4.4-11.7l7.6,9.7L54.6,40.8z M48,45.8L28.1,19.3l22.5,24.3L48,45.8z M42.2,52L34,42.8l10.6,6.6L42.2,52z M37.4,59.3
				L9.6,41l29.7,15.1L37.4,59.3z M34.2,67.1l-10.9-6l12.1,2.6L34.2,67.1z M32.3,75.4L0,67.9l32.9,3.8L32.3,75.4z M31.7,84l-12.1-2
				l12.1-1.8L31.7,84z M33,92.2l-33,4l32.3-7.6L33,92.2z M128.2,71.7l33.2-3.8L129,75.3L128.2,71.7z M125.8,63.7l12.1-2.6l-10.8,6
				L125.8,63.7z M122,56.1L151.7,41l-27.9,18.3L122,56.1z M116.7,49.4l10.7-6.6l-8.2,9.2L116.7,49.4z M110.5,43.6l22.9-24.3
				l-19.9,26.5L110.5,43.6z M103.5,38.8l7.6-9.7l-4.6,11.7L103.5,38.8z M95.4,35.6L108.7,5l-9.6,31.7L95.4,35.6z M87.4,33.8
				l3.8-11.9L91,34.4L87.4,33.8z M122.2,82c-0.1,22.9-18.7,41.4-41.6,41.4c-22.9-0.1-41.4-18.7-41.4-41.6
				c0.1-22.8,18.6-41.3,41.4-41.4c22.9-0.1,41.5,18.4,41.6,41.3C122.2,81.7,122.2,81.9,122.2,82 M78.8,33.4L80.6,0l1.8,33.3H78.8z"
				/>
		</g>
	</g>
</g>
</svg>
