<?xml version="1.0" encoding="utf-8"?>
<!-- Generator: Adobe Illustrator 28.2.0, SVG Export Plug-In . SVG Version: 6.00 Build 0)  -->
<svg version="1.1" id="Layer_1" xmlns="http://www.w3.org/2000/svg" xmlns:xlink="http://www.w3.org/1999/xlink" x="0px" y="0px"
	 viewBox="0 0 143.1 137.2" style="enable-background:new 0 0 143.1 137.2;" xml:space="preserve">
<style type="text/css">
	.st0{clip-path:url(#SVGID_00000015317903670097473120000010695683068218214803_);}
	.st1{fill:#273A1B;}
	.st2{fill:#666666;}
	.st3{fill:#FDBC0D;}
</style>
<g id="Grupo_38" transform="translate(0 0.004)">
	<g>
		<defs>
			<rect id="SVGID_1_" y="0" width="143.1" height="137.2"/>
		</defs>
		<clipPath id="SVGID_00000005234694484660636520000016268602138108801677_">
			<use xlink:href="#SVGID_1_"  style="overflow:visible;"/>
		</clipPath>
		
			<g id="Grupo_37" transform="translate(0 -0.004)" style="clip-path:url(#SVGID_00000005234694484660636520000016268602138108801677_);">
			<path id="Caminho_184" class="st1" d="M129,12.8h-7.9v6.7c0,3.9-3.1,7-6.9,7.1s-7-3.1-7.1-6.9c0-0.1,0-0.1,0-0.2v-6.7H78.6v6.7
				c0,3.9-3.1,7-7,7c-3.9,0-7-3.1-7-7c0,0,0,0,0,0v-6.7H36v6.7c0,3.9-3.1,7-7,7s-7-3.1-7-7c0,0,0,0,0,0v-6.7h-7.9
				C6.3,12.8,0,19.1,0,26.9c0,0,0,0,0,0v96.2c0,7.8,6.3,14.1,14.1,14.1H129c7.8,0,14.1-6.3,14.1-14.1c0,0,0,0,0,0V26.9
				C143.1,19.1,136.8,12.8,129,12.8C129,12.8,129,12.8,129,12.8 M41.8,113.8c0,0.9-0.8,1.7-1.7,1.7H27.8c-0.9,0-1.7-0.8-1.7-1.7v-11
				c0-0.9,0.8-1.7,1.7-1.7h12.3c0.9,0,1.7,0.8,1.7,1.7V113.8z M41.8,91.8c0,0.9-0.8,1.7-1.7,1.7H27.8c-0.9,0-1.7-0.8-1.7-1.7v-11
				c0-0.9,0.8-1.7,1.7-1.7h12.3c0.9,0,1.7,0.8,1.7,1.7V91.8z M41.8,69.7c0,0.9-0.8,1.7-1.7,1.7H27.8c-0.9,0-1.7-0.8-1.7-1.7v-11
				c0-0.9,0.8-1.7,1.7-1.7h12.3c0.9,0,1.7,0.8,1.7,1.7V69.7z M66.6,113.8c0,0.9-0.8,1.7-1.7,1.7H52.6c-0.9,0-1.7-0.8-1.7-1.7v-11
				c0-0.9,0.8-1.7,1.7-1.7h12.3c0.9,0,1.7,0.8,1.7,1.7L66.6,113.8z M66.6,91.8c0,0.9-0.8,1.7-1.7,1.7H52.6c-0.9,0-1.7-0.8-1.7-1.7
				v-11c0-0.9,0.8-1.7,1.7-1.7h12.3c0.9,0,1.7,0.8,1.7,1.7L66.6,91.8z M66.6,69.7c0,0.9-0.8,1.7-1.7,1.7H52.6
				c-0.9,0-1.7-0.8-1.7-1.7v-11c0-0.9,0.8-1.7,1.7-1.7h12.3c0.9,0,1.7,0.8,1.7,1.7L66.6,69.7z M91.4,113.8c0,0.9-0.8,1.7-1.7,1.7
				H77.3c-0.9,0-1.7-0.8-1.7-1.7v-11c0-0.9,0.8-1.7,1.7-1.7h12.3c0.9,0,1.7,0.8,1.7,1.7L91.4,113.8z M91.4,91.8
				c0,0.9-0.8,1.7-1.7,1.7H77.3c-0.9,0-1.7-0.8-1.7-1.7v-11c0-0.9,0.8-1.7,1.7-1.7h12.3c0.9,0,1.7,0.8,1.7,1.7L91.4,91.8z
				 M91.4,69.7c0,0.9-0.8,1.7-1.7,1.7H77.3c-0.9,0-1.7-0.8-1.7-1.7v-11c0-0.9,0.8-1.7,1.7-1.7h12.3c0.9,0,1.7,0.8,1.7,1.7L91.4,69.7
				z M116.1,91.8c0,0.9-0.8,1.7-1.7,1.7h-12.3c-0.9,0-1.7-0.8-1.7-1.7v-11c0-0.9,0.8-1.7,1.7-1.7h12.3c0.9,0,1.7,0.8,1.7,1.7
				L116.1,91.8z M116.1,69.7c0,0.9-0.8,1.7-1.7,1.7h-12.3c-0.9,0-1.7-0.8-1.7-1.7v-11c0-0.9,0.8-1.7,1.7-1.7h12.3
				c0.9,0,1.7,0.8,1.7,1.7L116.1,69.7z"/>
			<path id="Caminho_185" class="st2" d="M34,5v14.5c0,2.7-2.2,5-5,5s-5-2.2-5-5V5c0-2.7,2.2-5,5-5S34,2.2,34,5"/>
			<path id="Caminho_186" class="st2" d="M76.5,5v14.5c0,2.7-2.2,5-5,5c-2.7,0-5-2.2-5-5c0,0,0,0,0,0V5c0-2.7,2.2-5,5-5
				C74.3,0,76.5,2.2,76.5,5"/>
			<path id="Caminho_187" class="st2" d="M119.1,5v14.5c0,2.7-2.2,5-5,5c-2.7,0-5-2.2-5-5c0,0,0,0,0,0V5c0-2.7,2.2-5,5-5
				C116.9,0,119.1,2.2,119.1,5"/>
			<path id="Caminho_188" class="st2" d="M119.1,5v14.5c0,2.7-2.2,5-5,5c-2.7,0-5-2.2-5-5c0,0,0,0,0,0V5c0-2.7,2.2-5,5-5
				C116.9,0,119.1,2.2,119.1,5"/>
			<rect id="Retângulo_70" y="39.3" class="st3" width="143.1" height="4.1"/>
		</g>
	</g>
</g>
</svg>
