<?xml version="1.0" encoding="utf-8"?>
<!-- Generator: Adobe Illustrator 28.2.0, SVG Export Plug-In . SVG Version: 6.00 Build 0)  -->
<svg version="1.1" id="Layer_1" xmlns="http://www.w3.org/2000/svg" xmlns:xlink="http://www.w3.org/1999/xlink" x="0px" y="0px"
	 viewBox="0 0 143.3 137.4" style="enable-background:new 0 0 143.3 137.4;" xml:space="preserve">
<style type="text/css">
	.st0{clip-path:url(#SVGID_00000182520277294863388400000001813947844373688993_);}
	.st1{fill:#273A1B;}
	.st2{fill:#666666;}
	.st3{fill:#FDBC0D;}
</style>
<g id="Grupo_36" transform="translate(0 0.004)">
	<g>
		<defs>
			<rect id="SVGID_1_" y="0" width="143.3" height="137.4"/>
		</defs>
		<clipPath id="SVGID_00000098910192475614305610000003638932961423642302_">
			<use xlink:href="#SVGID_1_"  style="overflow:visible;"/>
		</clipPath>
		
			<g id="Grupo_35" transform="translate(0 -0.004)" style="clip-path:url(#SVGID_00000098910192475614305610000003638932961423642302_);">
			<path id="Caminho_177" class="st1" d="M129.2,12.8h-7.9v6.7c0,3.9-3.1,7-7,7c-3.9,0-7-3.1-7-7c0,0,0,0,0,0v-6.7H78.7v6.7
				c0,3.9-3.1,7-7,7c-3.9,0-7-3.1-7-7c0,0,0,0,0,0v-6.7H36.1v6.7c0,3.9-3.1,7-7,7c-3.9,0-7-3.1-7-7c0,0,0,0,0,0v-6.7h-7.9
				C6.3,12.8,0,19.2,0,27v96.3c0,7.8,6.3,14.1,14.1,14.1c0,0,0,0,0,0h115.1c7.8,0,14.1-6.3,14.1-14.1v0V27
				C143.3,19.2,137,12.8,129.2,12.8L129.2,12.8 M109.7,65.8L64.1,106L43.5,86.3c-0.8-0.8-0.8-2.1-0.1-2.9s2.1-0.8,2.9-0.1l17.9,17.1
				L107,62.8c0.8-0.7,2.1-0.7,2.9,0.2S110.6,65.1,109.7,65.8"/>
			<path id="Caminho_178" class="st2" d="M34,5v14.6c0,2.7-2.2,5-5,5c-2.7,0-5-2.2-5-5V5c0-2.7,2.2-5,5-5C31.8,0,34,2.2,34,5"/>
			<path id="Caminho_179" class="st2" d="M34,5v14.6c0,2.7-2.2,5-5,5c-2.7,0-5-2.2-5-5V5c0-2.7,2.2-5,5-5C31.8,0,34,2.2,34,5"/>
			<path id="Caminho_180" class="st2" d="M76.6,5v14.6c0,2.7-2.2,5-5,5s-5-2.2-5-5V5c0-2.7,2.2-5,5-5S76.6,2.2,76.6,5"/>
			<path id="Caminho_181" class="st2" d="M76.6,5v14.6c0,2.7-2.2,5-5,5s-5-2.2-5-5V5c0-2.7,2.2-5,5-5S76.6,2.2,76.6,5"/>
			<path id="Caminho_182" class="st2" d="M119.2,5v14.6c0,2.7-2.2,5-5,5s-5-2.2-5-5V5c0-2.7,2.2-5,5-5S119.2,2.2,119.2,5"/>
			<path id="Caminho_183" class="st2" d="M119.2,5v14.6c0,2.7-2.2,5-5,5s-5-2.2-5-5V5c0-2.7,2.2-5,5-5S119.2,2.2,119.2,5"/>
			<rect id="Retângulo_68" y="39.3" class="st3" width="143.3" height="4.1"/>
		</g>
	</g>
</g>
</svg>
