<?xml version="1.0" encoding="utf-8"?>
<!-- Generator: Adobe Illustrator 28.2.0, SVG Export Plug-In . SVG Version: 6.00 Build 0)  -->
<svg version="1.1" id="Layer_1" xmlns="http://www.w3.org/2000/svg" xmlns:xlink="http://www.w3.org/1999/xlink" x="0px" y="0px"
	 viewBox="0 0 18.5 18.5" style="enable-background:new 0 0 18.5 18.5;" xml:space="preserve">
<style type="text/css">
	.st0{fill:#FFFFFF;}
</style>
<path id="ic_instagram-topo" class="st0" d="M9.2,1.7c2.5,0,2.8,0,3.7,0.1c0.6,0,1.2,0.1,1.7,0.3c0.8,0.3,1.4,0.9,1.8,1.8
	c0.2,0.6,0.3,1.1,0.3,1.7c0,1,0.1,1.3,0.1,3.7s0,2.8-0.1,3.7c0,0.6-0.1,1.2-0.3,1.7c-0.3,0.8-0.9,1.4-1.8,1.8
	c-0.6,0.2-1.1,0.3-1.7,0.3c-1,0-1.3,0.1-3.7,0.1s-2.8,0-3.7-0.1c-0.6,0-1.2-0.1-1.7-0.3C3,16.2,2.3,15.5,2,14.7
	c-0.2-0.6-0.3-1.1-0.3-1.7c0-1-0.1-1.3-0.1-3.7s0-2.8,0.1-3.7c0-0.6,0.1-1.2,0.3-1.7C2.4,3,3,2.3,3.8,2c0.5-0.2,1.1-0.3,1.7-0.3
	C6.5,1.7,6.8,1.7,9.2,1.7 M9.2,0C6.7,0,6.4,0,5.4,0.1c-0.8,0-1.5,0.2-2.2,0.4C1.9,1,1,1.9,0.5,3.2C0.2,3.9,0.1,4.7,0.1,5.4
	C0,6.4,0,6.7,0,9.2s0,2.8,0.1,3.8c0,0.8,0.2,1.5,0.4,2.2C1,16.6,1.9,17.5,3.2,18c0.7,0.3,1.5,0.4,2.2,0.4c1,0,1.3,0.1,3.8,0.1
	s2.8,0,3.8-0.1c0.8,0,1.5-0.2,2.2-0.4c1.2-0.5,2.2-1.5,2.7-2.7c0.3-0.7,0.4-1.5,0.4-2.2c0-1,0.1-1.3,0.1-3.8s0-2.8-0.1-3.8
	c0-0.8-0.2-1.5-0.4-2.2c-0.5-1.2-1.5-2.2-2.7-2.7c-0.7-0.3-1.5-0.4-2.2-0.4C12.1,0,11.8,0,9.2,0L9.2,0z M9.2,4.5
	c-2.6,0-4.8,2.1-4.8,4.8S6.6,14,9.2,14S14,11.9,14,9.2l0,0C14,6.6,11.9,4.5,9.2,4.5z M9.2,12.3c-1.7,0-3.1-1.4-3.1-3.1
	c0-1.7,1.4-3.1,3.1-3.1c1.7,0,3.1,1.4,3.1,3.1l0,0C12.3,11,11,12.3,9.2,12.3C9.3,12.3,9.3,12.3,9.2,12.3L9.2,12.3z M14.2,3.2
	c-0.6,0-1.1,0.5-1.1,1.1c0,0.6,0.5,1.1,1.1,1.1c0.6,0,1.1-0.5,1.1-1.1S14.8,3.2,14.2,3.2C14.2,3.2,14.2,3.2,14.2,3.2z"/>
</svg>
